<svg id="Calque_1" data-name="Calque 1" xmlns="http://www.w3.org/2000/svg" viewBox="0 0 1000 1000">
  <!-- Texte avec couleur grise, centré horizontalement et verticalement -->
  <text fill="#595959" font-size="150px" font-family="bBigerOver, b Biger Over" x="50%" y="100%" text-anchor="middle" dominant-baseline="middle">RE-WISE</text>

  <!-- Première forme avec couleur rouge -->
  <path fill="#b01513" d="M206.77,559.42s125.85-10.73,222.67,106.07C537.84,796.27,756.32,806,849,715.18c0,0-172.65,27.72-298.5-66.82S326.17,502.08,206.77,559.42Z"/>

  <!-- Deuxième forme avec couleur grise -->
  <path fill="#595959" d="M512.79,758.43c-38.84-2-149.22-16.95-205.21-79.13S151,589.53,151,589.53c27.54-9.85,45.37-7.37,76.08-4.55,45.51,7.83,114.05,20.18,172.92,91.2C430.62,713.08,470,740.35,512.79,758.43Z"/>

  <!-- Autres formes -->
  <path fill="#595959" d="M381.45,218.74V532.42q-10.29-3.39-20.53-5.81V203.82Z"/>
  <path fill="#b01513" d="M268.7,259.81V523a219.62,219.62,0,0,1,37.17-3.16,226,226,0,0,1,43.4,4.25V201Zm22.75,237.31-15.74,3.66,0-20.14,15.78-4.05Zm0-33.74-15.78,4.28V447.44l15.78-4.67Zm0-33.82-15.82,4.91v-20.3l15.82-5.3Zm0-34-15.82,5.57V380.82l15.82-6Zm0-34.06-15.86,6.2V347.35l15.86-6.62Zm0-34.17-15.86,6.86V313.73l15.86-7.21Zm0-34.24-15.9,7.48V280.07l15.94-7.87Zm23.84,198.39-16.63,3.89V474.68l16.63-4.25Zm0-34.68-16.63,4.56V440.62l16.67-4.94Zm.08-34.79-16.67,5.22V406.42l16.71-5.61Zm0-34.87L298.82,393l0-20.88,16.72-6.31Zm.08-35-16.76,6.55,0-21,16.76-6.94Zm0-35.14-16.76,7.21,0-21,16.76-7.64Zm.07-35.26-16.79,7.91V268.53l16.83-8.33Zm24.94,203.88-17.57,4.1,0-21.28,17.61-4.52Zm.12-35.68-17.61,4.79,0-21.35,17.62-5.22Zm.07-35.81-17.65,5.49.08-21.42,17.65-5.93Zm.12-35.92-17.69,6.23.08-21.5L341,356.27Zm.12-36-17.73,6.94,0-21.59,17.73-7.36Zm.08-36.16-17.73,7.64,0-21.66,17.76-8.11Zm.11-36.31-17.76,8.38,0-21.74,17.8-8.81Z"/>
  <path fill="#595959" d="M624.41,112.92V258L579.26,290.9V649.26q-9.88-6.19-19.44-13.36-11.46-8.6-22.6-16.72V49.57Z"/>
  <path fill="#b01513" d="M393.14,137V536.43c7.83,2.81,15.66,6,23.57,9.58,33.08,14.81,66.78,35.38,102.35,60.28V45.17Zm35.53,370.71-24.58,5.73V482l24.62-6.31Zm0-52.67-24.62,6.7V430.22l24.62-7.32Zm0-52.87-24.66,7.71,0-31.71,24.7-8.26Zm0-53-24.7,8.69V326.08l24.74-9.27Zm0-53.18-24.74,9.66V273.79l24.78-10.28Zm0-53.38L404.05,253.3v-32L428.83,210Zm0-53.57L404,200.74V168.68l24.86-12.31Zm37.2,310-26,6,0-32.34,26-6.7Zm.08-54.2-26,7.09,0-32.45,26-7.72Zm.08-54.35-26,8.1V366.09l26.11-8.76Zm.12-54.54-26.11,9.19,0-32.69,26.11-9.78Zm.08-54.71-26.15,10.25,0-32.8,26.14-10.84Zm.07-54.89-26.18,11.3,0-32.89,26.22-11.92Zm.12-55.09L440.4,183.64v-33l26.26-13Zm39,318.54-27.47,6.43.08-33.27,27.51-7.09Zm.16-55.75-27.51,7.48.08-33.35L505.82,400Zm.15-55.91-27.54,8.57.08-33.47L506,344Zm.16-56.14-27.59,9.7.08-33.59,27.63-10.4Zm.19-56.3-27.66,10.79.08-33.7,27.66-11.49Zm.16-56.53-27.7,12,.08-33.86,27.7-12.62Zm.16-56.69-27.78,13.05.07-33.94,27.82-13.75Z"/>
  <path fill="#595959" d="M792.06,278.24V703.38H789.3a493.52,493.52,0,0,1-71.58-5.14v-474Z"/>
  <path fill="#b01513" d="M594.84,298.81V658.46a309.33,309.33,0,0,0,29.57,14.26,376.37,376.37,0,0,0,77.81,22.94V220.49Zm30.31,316.13-21,4.87,0-26.85,21-5.37Zm0-45-21,5.72V548.78l21-6.23Zm0-45-21,6.54v-27l21.08-7.09Zm0-45.24-21.08,7.41V460l21.08-7.91Zm0-45.35-21.08,8.26,0-27.19,21.16-8.77Zm0-45.5-21.16,9.07V370.69l21.16-9.62Zm0-45.67-21.2,9.94V325.77l21.2-10.48ZM657,607.49l-22.13,5.15V585.05l22.17-5.68Zm.08-46.2-22.17,6V539.66l22.21-6.58Zm.08-46.33L635,521.9V494.12l22.25-7.48Zm.08-46.52L635,476.27V448.42L657.3,440Zm.07-46.63-22.28,8.72v-28l22.32-9.23Zm.08-46.83-22.32,9.62,0-28,22.32-10.17Zm.08-47-22.36,10.52V310.42l22.4-11.07Zm33.23,271.59-23.41,5.5,0-28.4,23.45-6Zm.12-47.53-23.45,6.39.07-28.44,23.46-7ZM691,504.4l-23.5,7.33,0-28.56,23.53-7.87Zm.11-47.84-23.53,8.26.08-28.64,23.57-8.84Zm.16-48-23.57,9.23,0-28.75,23.61-9.82Zm.16-48.15-23.65,10.16.07-28.87,23.65-10.75Zm.11-48.36-23.65,11.15,0-29,23.69-11.73Z"/>
</svg>
