<svg id="Calque_1" data-name="Calque 1" xmlns="http://www.w3.org/2000/svg" viewBox="0 0 1080 1080"><defs><style>.cls-1{fill:#595959;}.cls-2{fill:#b01513;}</style></defs><polygon class="cls-1" points="391.26 368.01 414.95 381.79 414.95 326.67 391.26 313.15 391.26 368.01"/><polygon class="cls-1" points="429.22 389.95 448.2 400.93 448.2 347.68 429.22 334.83 429.22 389.95"/><polygon class="cls-1" points="462.47 409.22 486.29 422.87 486.29 369.35 462.47 355.7 462.47 409.22"/><polygon class="cls-1" points="448.2 544.76 429.22 533.78 429.22 598.94 448.2 609.91 448.2 544.76"/><polygon class="cls-1" points="414.95 525.49 391.26 511.84 391.26 577.13 414.95 590.78 414.95 525.49"/><polygon class="cls-1" points="486.29 566.7 462.47 553.05 462.47 618.07 486.29 631.72 486.29 566.7"/><polygon class="cls-1" points="391.26 470.5 391.26 495.39 557.5 591.45 557.5 566.56 391.26 470.5"/><polygon class="cls-1" points="391.26 428.08 391.26 452.98 557.5 549.03 557.5 524.16 391.26 428.08"/><polygon class="cls-1" points="391.26 384.33 391.26 411.63 557.5 507.7 557.5 480.4 391.26 384.33"/><polygon class="cls-2" points="557.5 217.1 391.26 313.15 414.95 326.67 557.5 244.39 699.91 326.67 723.73 313.15 557.5 217.1"/><polygon class="cls-2" points="429.22 334.83 448.2 347.68 557.5 283.59 666.66 347.68 685.78 334.83 557.5 260.84 429.22 334.83"/><polygon class="cls-2" points="462.47 355.7 486.29 369.35 557.5 327.2 628.7 369.35 652.39 355.7 557.5 300.04 462.47 355.7"/><polygon class="cls-2" points="699.91 326.67 699.91 481.61 557.5 566.56 557.5 591.45 723.73 495.39 723.73 313.15 699.91 326.67"/><polygon class="cls-2" points="685.78 334.83 666.66 347.68 666.66 461.94 557.5 524.16 557.5 549.03 685.9 473.45 685.78 334.83"/><polygon class="cls-2" points="652.39 355.7 628.7 369.35 628.7 440.13 557.5 480.4 557.5 507.7 652.39 453.78 652.39 355.7"/><path class="cls-1" d="M54.18,719.08v-17.7H110.3a17.92,17.92,0,0,1,14.34,6.82,18.32,18.32,0,0,1,4.37,12v12A18.93,18.93,0,0,1,110.3,751H71.87v27.15H53.16V733.31H110.3V719.08Z"/><path class="cls-1" d="M136.94,719.08v-17.7h56.13a17.93,17.93,0,0,1,14.34,6.82,18.32,18.32,0,0,1,4.37,12v12A18.93,18.93,0,0,1,193.07,751l18.81,27.15H189.11L170.3,751H154.64v27.15H135.93V733.31h57.14V719.08Z"/><path class="cls-1" d="M214,778.15l29.59-76.77h20l-18.51,48.2h17.08l-3.35-8.64,10-26,24.41,63.24H273.09l-4.17-10.78h-30.7l-4.17,10.78Z"/><path class="cls-1" d="M368.37,778.05H315.09a17.73,17.73,0,0,1-14.34-6.81,18.22,18.22,0,0,1-4.37-11.9V720.19a18.95,18.95,0,0,1,18.71-18.81h52.26v17.7H315.09v11.79h51.24v17.69H315.09v11.8h53.28Z"/><path class="cls-1" d="M377.62,719.08v-17.7h56.13a17.9,17.9,0,0,1,14.33,6.82,18.26,18.26,0,0,1,4.37,12v39.15a17.73,17.73,0,0,1-6.81,14.34,18.19,18.19,0,0,1-11.89,4.37H395.31v.1H376.6v-48.6h18.71v30.81h38.44V719.08Z"/><path class="cls-1" d="M460.59,701.38H479.3v76.77H460.59Z"/><path class="cls-1" d="M564.5,701.38v58a17.92,17.92,0,0,1-6.81,14.34,18.32,18.32,0,0,1-12,4.37H507a17.7,17.7,0,0,1-14.33-6.81,18.16,18.16,0,0,1-4.37-11.9v-58H507v59h38.74v-59Z"/><path class="cls-1" d="M649.41,778.15V728.63l-17.19,24.61H609.45l-17.29-24.71v49.62H573.45V701.38h22.78l24.6,35.39,24.61-35.39h22.78l-.11.11v76.66Z"/><path class="cls-2" d="M733.19,720.3H704.31V701.49h28.88v-.11H752v.11h29V720.3H752v57.85H733.19Z"/><path class="cls-2" d="M859.58,778.05H806.3A17.73,17.73,0,0,1,792,771.24a18.22,18.22,0,0,1-4.37-11.9V720.19a18.95,18.95,0,0,1,18.71-18.81h52.26v17.7H806.3v11.79h51.24v17.69H806.3v11.8h53.28Z"/><path class="cls-2" d="M924.15,749.88h18.7v9.46A17.73,17.73,0,0,1,936,773.68a18.19,18.19,0,0,1-11.89,4.37H885.41a17.72,17.72,0,0,1-14.34-6.81,18.18,18.18,0,0,1-4.38-11.9V720.19a19,19,0,0,1,18.72-18.81h38.74a17.91,17.91,0,0,1,14.33,6.82,18.26,18.26,0,0,1,4.37,12v9.36h-18.7V719.08H885.41v41.28h38.74Z"/><path class="cls-2" d="M950.88,701.38H969.6v76.77H950.88ZM1008,730.87V701.38h18.81v76.77H1008V748.56H978.85V730.87Z"/><path class="cls-2" d="M83.47,840.35H64.57a9.12,9.12,0,0,1-7.38-3.51,9.38,9.38,0,0,1-2.25-6.13v-5a9.74,9.74,0,0,1,9.63-9.68H93.1v9.11H64.57v6.07h18.9a9.14,9.14,0,0,1,7.38,3.5,9.38,9.38,0,0,1,2.25,6.13V846a9.12,9.12,0,0,1-3.51,7.38,9.36,9.36,0,0,1-6.12,2.25H54.94v-9.11H83.47Z"/><path class="cls-2" d="M100.28,816.06h9.63v39.52h-9.63Z"/><path class="cls-2" d="M156.5,855.58V830.09l-8.84,12.66H135.93L127,830v25.55H117.4V816.06h11.73l12.67,18.21,12.66-18.21h11.73l-.05.05v39.47Z"/><path class="cls-2" d="M173.89,825.17v-9.11h28.9a9.23,9.23,0,0,1,7.38,3.51,9.41,9.41,0,0,1,2.25,6.17v6.18a9.75,9.75,0,0,1-9.63,9.68H183v14h-9.63V832.49h29.42v-7.32Z"/><path class="cls-2" d="M218.66,816.06h9.63v30.41h26.9v9.11h-26.9a9.12,9.12,0,0,1-7.38-3.51,9.34,9.34,0,0,1-2.25-6.12Z"/><path class="cls-2" d="M261.85,816.06h9.63v39.52h-9.63Z"/><path class="cls-2" d="M278.56,855.58V825.74a9.74,9.74,0,0,1,9.63-9.68h26.9v9.11h-26.9v6.07h26.38v9.11H288.19v15.23Z"/><path class="cls-2" d="M360.69,816.06,344.88,839v16.6h-9.63V839l-15.8-22.92h11.72l8.9,12.87,8.9-12.87Z"/><path class="cls-2" d="M356.25,848.25h8.69v7.33l-4.29,7.32H358.4v-7.32h-2.15Z"/><path class="cls-2" d="M389.25,845.89V825.74a9.74,9.74,0,0,1,9.63-9.68h19.94a9.2,9.2,0,0,1,7.38,3.51,9.41,9.41,0,0,1,2.25,6.17v20.15a9.14,9.14,0,0,1-3.5,7.38,9.38,9.38,0,0,1-6.13,2.25H398.88a9.11,9.11,0,0,1-7.38-3.5A9.38,9.38,0,0,1,389.25,845.89Zm9.63-20.72v21.25h19.94V825.17Z"/><path class="cls-2" d="M435.64,825.17v-9.11h28.89a9.23,9.23,0,0,1,7.38,3.51,9.41,9.41,0,0,1,2.25,6.17v6.18a9.74,9.74,0,0,1-9.63,9.68H444.74v14h-9.63V832.49h29.42v-7.32Z"/><path class="cls-2" d="M494.9,825.79H480v-9.68H494.9v-.05h9.68v.05H519.5v9.68H504.58v29.79H494.9Z"/><path class="cls-2" d="M526.36,816.06H536v39.52h-9.64Z"/><path class="cls-2" d="M582.59,855.58V830.09l-8.85,12.66H562L553.12,830v25.55h-9.63V816.06h11.73l12.66,18.21,12.67-18.21h11.72l0,.05v39.47Z"/><path class="cls-2" d="M599.66,816.06h9.63v39.52h-9.63Z"/><path class="cls-2" d="M616.63,816.06h39v9.11l-24.86,21.3h24.86v9.11h-39v-9.11l24.87-21.3H616.63Z"/><path class="cls-2" d="M699.34,855.52H671.92a9.11,9.11,0,0,1-7.38-3.5,9.38,9.38,0,0,1-2.25-6.13V825.74a9.74,9.74,0,0,1,9.63-9.68h26.9v9.11h-26.9v6.07H698.3v9.11H671.92v6.07h27.42Z"/><path class="cls-2" d="M707,848.25h8.68v7.33l-4.29,7.32h-2.25v-7.32H707Z"/><path class="cls-2" d="M768.73,840.35H749.84a9.13,9.13,0,0,1-7.39-3.51,9.38,9.38,0,0,1-2.25-6.13v-5a9.75,9.75,0,0,1,9.64-9.68h28.52v9.11H749.84v6.07h18.89a9.14,9.14,0,0,1,7.38,3.5,9.38,9.38,0,0,1,2.25,6.13V846a9.12,9.12,0,0,1-3.51,7.38,9.34,9.34,0,0,1-6.12,2.25H740.2v-9.11h28.53Z"/><path class="cls-2" d="M824.59,816.06v29.83a9.2,9.2,0,0,1-3.51,7.38,9.41,9.41,0,0,1-6.17,2.25H795a9.11,9.11,0,0,1-7.38-3.5,9.38,9.38,0,0,1-2.25-6.13V816.06H795v30.36h19.95V816.06Z"/><path class="cls-2" d="M860.66,841h9.64v4.86a9.15,9.15,0,0,1-3.51,7.38,9.38,9.38,0,0,1-6.13,2.25H840.72a9.11,9.11,0,0,1-7.38-3.5,9.38,9.38,0,0,1-2.25-6.13V825.74a9.74,9.74,0,0,1,9.63-9.68h19.94a9.2,9.2,0,0,1,7.38,3.51,9.42,9.42,0,0,1,2.26,6.17v4.82h-9.64v-5.39H840.72v21.25h19.94Z"/><path class="cls-2" d="M905.9,841h9.63v4.86a9.12,9.12,0,0,1-3.51,7.38,9.34,9.34,0,0,1-6.12,2.25H886a9.09,9.09,0,0,1-7.38-3.5,9.34,9.34,0,0,1-2.26-6.13V825.74a9.75,9.75,0,0,1,9.64-9.68H905.9a9.23,9.23,0,0,1,7.38,3.51,9.41,9.41,0,0,1,2.25,6.17v4.82H905.9v-5.39H886v21.25H905.9Z"/><path class="cls-2" d="M958.62,855.52H931.19a9.11,9.11,0,0,1-7.38-3.5,9.38,9.38,0,0,1-2.25-6.13V825.74a9.74,9.74,0,0,1,9.63-9.68h26.9v9.11h-26.9v6.07h26.38v9.11H931.19v6.07h27.43Z"/><path class="cls-2" d="M999.61,855.52H972.18a9.11,9.11,0,0,1-7.38-3.5,9.38,9.38,0,0,1-2.25-6.13V825.74a9.75,9.75,0,0,1,9.63-9.68h26.91v9.11H972.18v6.07h26.38v9.11H972.18v6.07h27.43Z"/><path class="cls-2" d="M1003.37,825.17v-9.11h28.89a9.23,9.23,0,0,1,7.38,3.51,9.41,9.41,0,0,1,2.25,6.17v20.15a9.12,9.12,0,0,1-3.51,7.38,9.34,9.34,0,0,1-6.12,2.25h-19.79v.06h-9.63v-25h9.63v15.86h19.79V825.17Z"/></svg>