<svg id="Layer_1" height="512" viewBox="0 0 512 512" width="512" xmlns="http://www.w3.org/2000/svg" data-name="Layer 1" fill="#595959"><path d="m420.368 512a22.953 22.953 0 0 0 22.932-22.928v-421.572a22.953 22.953 0 0 0 -22.928-22.927h-70.036l-.023-5.254a8 8 0 0 0 -3.3-6.437l-43.155-31.354a8 8 0 0 0 -4.702-1.528h-86.312a8 8 0 0 0 -4.7 1.528l-43.159 31.354a8 8 0 0 0 -3.3 6.437l-.024 5.254h-70.029a22.953 22.953 0 0 0 -22.932 22.927v421.572a22.953 22.953 0 0 0 22.932 22.928zm-242.698-468.556 37.773-27.444h81.114l37.774 27.444.1 22.025h-156.859zm-92.97 445.628v-421.572a6.936 6.936 0 0 1 6.928-6.927h69.962l-.057 12.861a8 8 0 0 0 8 8.035h172.93a8 8 0 0 0 8-8.035l-.057-12.861h69.962a6.936 6.936 0 0 1 6.932 6.927v421.572a6.936 6.936 0 0 1 -6.932 6.928h-328.736a6.936 6.936 0 0 1 -6.932-6.928zm86.629-327.772 49.5-49.5a8 8 0 0 1 11.315 11.314l-55.155 55.154a8 8 0 0 1 -11.314 0l-28.575-28.574a8 8 0 0 1 11.314-11.314zm-56.829 33.987v-78a8 8 0 0 1 8-8h51.75a8 8 0 0 1 0 16h-43.75v62h62v-13.751a8 8 0 0 1 16 0v21.751a8 8 0 0 1 -8 8h-78a8 8 0 0 1 -8-8zm117.641 160.513a8 8 0 0 1 0 11.313l-55.155 55.154a8 8 0 0 1 -11.314 0l-28.572-28.573a8 8 0 0 1 11.314-11.313l22.92 22.92 49.5-49.5a8 8 0 0 1 11.307-.001zm-117.641 83.487v-78a8 8 0 0 1 8-8h51.75a8 8 0 1 1 0 16h-43.75v62h62v-13.751a8 8 0 0 1 16 0v21.751a8 8 0 0 1 -8 8h-78a8 8 0 0 1 -8-8zm117.641-205.487a8 8 0 0 1 0 11.313l-55.155 55.154a8 8 0 0 1 -11.314 0l-28.572-28.573a8 8 0 0 1 11.314-11.314l22.92 22.921 49.5-49.5a8 8 0 0 1 11.307-.001zm-117.641 83.487v-78a8 8 0 0 1 8-8h51.75a8 8 0 0 1 0 16h-43.75v62h62v-13.751a8 8 0 0 1 16 0v21.751a8 8 0 0 1 -8 8h-78a8 8 0 0 1 -8-8zm144 101.5a8 8 0 0 1 8-8h123a8 8 0 0 1 0 16h-123a8 8 0 0 1 -8-8zm0-37a8 8 0 0 1 8-8h123a8 8 0 0 1 0 16h-123a8 8 0 0 1 -8-8zm0-85a8 8 0 0 1 8-8h123a8 8 0 0 1 0 16h-123a8 8 0 0 1 -8-8zm0-37a8 8 0 0 1 8-8h123a8 8 0 1 1 0 16h-123a8 8 0 0 1 -8-8zm0-85a8 8 0 0 1 8-8h123a8 8 0 0 1 0 16h-123a8 8 0 0 1 -8-8zm0-37a8 8 0 0 1 8-8h123a8 8 0 0 1 0 16h-123a8 8 0 0 1 -8-8z"/></svg>