<svg version="1.1" xmlns="http://www.w3.org/2000/svg" xmlns:xlink="http://www.w3.org/1999/xlink" width="512px" height="512px" viewBox="0,0,256,256"><g fill="#595959" fill-rule="nonzero" stroke="none" stroke-width="1" stroke-linecap="butt" stroke-linejoin="miter" stroke-miterlimit="10" stroke-dasharray="" stroke-dashoffset="0" font-family="none" font-weight="none" font-size="none" text-anchor="none" style="mix-blend-mode: normal"><g transform="translate(0.00022,0) scale(0.5,0.5)"><g><g><path d="M448.785,167.356h-36.907v-72.629c0,-12.437 -4.946,-24.029 -13.04,-32.504l-23.848,-24.954c-20.238,-20.852 -22.792,-26.743 -34.846,-32.594c-5.6,-2.795 -12.979,-4.675 -20.419,-4.675h-174.192c-25.949,0 -47.052,21.113 -47.052,47.052v253.738h-9.923c-14.97,0 -27.145,12.175 -27.145,27.145c0,7.45 3.016,14.196 7.882,19.102c-4.866,4.906 -7.882,11.652 -7.882,19.102c0,2.795 0.392,4.454 0.533,5.369c-58.906,5.992 -82.372,78.902 -39.261,118.474c13.02,11.954 30.302,18.73 49.042,17.966c6.193,0 133.695,-0.05 133.856,-0.05c14.96,0 27.145,-12.175 27.145,-27.145c0,-7.45 -3.016,-14.196 -7.882,-19.102c4.575,-4.615 7.51,-10.838 7.842,-17.755h10.185v5.439c0,34.555 28.11,62.665 62.665,62.665h143.247c34.555,0 62.665,-28.11 62.665,-62.665v-219.314c0.001,-34.555 -28.11,-62.665 -62.665,-62.665zM384.753,70.779c0,0 0.01,0 0.02,0.02c0.01,0 0.01,0 0.01,0c0.01,0.02 0.03,0.04 0.04,0.05l0.01,0.01c0.02,0.03 0.04,0.05 0.06,0.06c0.01,0.01 0.02,0.02 0.03,0.04c0.01,0.01 0.02,0.01 0.02,0.02c0.01,0.01 0.02,0.01 0.03,0.03c0.02,0.01 0.03,0.03 0.04,0.04h-40.306v-42.607c31.591,33.389 38.709,40.919 40.046,42.337zM88.558,316.876h117.026c6.093,0 11.059,4.967 11.059,11.059c0,6.103 -4.967,11.059 -11.059,11.059h-117.026c-6.093,0 -11.059,-4.956 -11.059,-11.059c-0.001,-6.093 4.966,-11.059 11.059,-11.059zM88.558,355.08h117.026c6.093,0 11.059,4.967 11.059,11.059c0,6.103 -4.967,11.059 -11.059,11.059h-80.833c-3.288,-1.508 -6.696,-2.735 -10.185,-3.68c-5.208,-1.418 -10.597,-2.222 -16.086,-2.363c-1.578,-0.04 -3.157,-0.03 -4.735,0.04h-15.01c-0.794,-1.518 -1.237,-3.237 -1.237,-5.057c0,-6.091 4.967,-11.058 11.06,-11.058zM216.643,404.344c0,6.103 -4.967,11.059 -11.059,11.059h-45.011c-3.056,-8.134 -7.661,-15.624 -13.653,-22.118h58.664c6.092,0 11.059,4.966 11.059,11.059zM49.428,389.907c-4.896,4.645 -9.25,10.164 -12.668,16.247h-9.37c6.123,-7.591 13.734,-12.99 22.038,-16.247zM18.834,421.234h11.713c-0.261,1.126 -1.589,5.459 -2.192,12.055h-12.376c0.483,-4.142 1.438,-8.184 2.855,-12.055zM20.131,461.098c-1.779,-4.042 -3.056,-8.314 -3.78,-12.728h12.286c2.202,12.487 2.322,10.335 2.875,12.728zM30.165,476.178c4.936,-0.01 7.802,0.02 8.475,-0.02c3.006,4.745 6.625,9.139 10.818,13.09c-7.289,-2.865 -13.773,-7.238 -19.293,-13.07zM98.792,492.878c-29.427,1.267 -54.341,-21.525 -55.588,-51.023c-2.021,-46.961 54.069,-74.006 89.388,-41.583c34.818,31.961 13.624,90.655 -33.8,92.606zM205.584,491.812h-64.917c7.188,-6.083 13.09,-13.613 17.282,-22.118h47.635c6.093,0 11.059,4.967 11.059,11.059c0,6.102 -4.967,11.059 -11.059,11.059zM216.553,443.896c-0.664,5.469 -5.329,9.712 -10.969,9.712h-42.085c1.458,-6.977 1.87,-14.498 0.975,-22.118h41.11c6.776,-0.001 11.833,6.062 10.969,12.406zM242.873,427.809h-14.518c-1.015,-1.578 -2.192,-3.036 -3.509,-4.363c10.506,-10.597 10.516,-27.608 0,-38.204c4.866,-4.906 7.882,-11.652 7.882,-19.102c0,-7.45 -3.016,-14.196 -7.882,-19.102c16.91,-17.051 4.826,-46.247 -19.263,-46.247h-91.017v-253.739c0,-17.071 13.894,-30.966 30.966,-30.966h183.09v63.007c0,4.444 3.599,8.043 8.043,8.043h58.171c1.679,6.515 0.643,4.363 0.955,80.219h-90.253c-34.555,0 -62.665,28.11 -62.665,62.665zM496.37,449.335c0,26.24 -21.344,47.585 -47.585,47.585h-143.246c-26.23,0 -47.585,-21.344 -47.585,-47.585v-219.314c0,-26.24 21.354,-47.585 47.585,-47.585h143.247c26.24,0 47.585,21.344 47.585,47.585v219.314z"></path></g></g><g><g><path d="M448.253,199.538h-142.181c-13.981,0 -25.315,11.334 -25.315,25.315v27.598c0,13.981 11.334,25.315 25.315,25.315h27.356c4.164,0 7.54,-3.376 7.54,-7.54c0,-4.164 -3.376,-7.54 -7.54,-7.54h-27.356c-5.629,0 -10.235,-4.606 -10.235,-10.235v-27.598c0,-5.629 4.606,-10.235 10.235,-10.235h142.181c5.65,0 10.235,4.595 10.235,10.235v27.598c0,5.64 -4.585,10.235 -10.235,10.235h-82.31c-4.164,0 -7.54,3.376 -7.54,7.54c0,4.164 3.376,7.54 7.54,7.54h82.31c13.965,0 25.315,-11.361 25.315,-25.315v-27.598c0,-13.954 -11.351,-25.315 -25.315,-25.315z"></path></g></g><g><g><path d="M322.309,358.428h-25.768c-8.697,0 -15.784,7.078 -15.784,15.784v25.758c0,8.707 7.088,15.784 15.784,15.784h25.768c8.707,0 15.784,-7.078 15.784,-15.784v-25.758c0,-8.706 -7.078,-15.784 -15.784,-15.784zM323.012,399.97c0,0.392 -0.322,0.704 -0.704,0.704h-25.768c-0.382,0 -0.704,-0.312 -0.704,-0.704v-25.758c0,-0.392 0.322,-0.704 0.704,-0.704h25.768c0.382,0 0.704,0.312 0.704,0.704z"></path></g></g><g><g><path d="M458.598,291.068h-25.758c-8.707,0 -15.784,7.078 -15.784,15.784v25.758c0,8.707 7.078,15.784 15.784,15.784h25.758c8.707,0 15.784,-7.078 15.784,-15.784v-25.758c0,-8.706 -7.078,-15.784 -15.784,-15.784zM459.302,332.61c0,0.392 -0.312,0.704 -0.704,0.704h-25.758c-0.382,0 -0.704,-0.312 -0.704,-0.704c0.312,-25.486 -0.654,-26.462 0.704,-26.462h25.758c0.392,0 0.704,0.312 0.704,0.704z"></path></g></g><g><g><path d="M322.309,291.068h-25.768c-8.697,0 -15.784,7.078 -15.784,15.784v25.758c0,8.707 7.088,15.784 15.784,15.784h25.768c8.707,0 15.784,-7.078 15.784,-15.784v-25.758c0,-8.706 -7.078,-15.784 -15.784,-15.784zM323.012,332.61c0,0.392 -0.322,0.704 -0.704,0.704h-25.768c-0.382,0 -0.704,-0.312 -0.704,-0.704v-25.758c0,-0.392 0.322,-0.704 0.704,-0.704h25.768c0.382,0 0.704,0.312 0.704,0.704z"></path></g></g><g><g><path d="M334.122,427.809c-2.896,-3.257 -7.118,-5.318 -11.813,-5.318h-25.768c-4.695,0 -8.918,2.061 -11.803,5.318c-5.479,6.143 -3.619,12.839 -3.981,16.086v20.138c0,8.707 7.088,15.784 15.784,15.784h25.768c8.707,0 15.784,-7.078 15.784,-15.784v-20.138c-0.362,-3.176 1.478,-9.943 -3.971,-16.086zM322.309,464.737c-25.456,-0.312 -26.472,0.654 -26.472,-0.704c0,-27.276 -0.302,-26.462 0.704,-26.462h25.768c1.237,0 0.473,1.719 0.704,6.324c-0.001,0.001 0.653,20.842 -0.704,20.842z"></path></g></g><g><g><path d="M454.596,358.428h-17.755c-10.908,0 -19.786,8.878 -19.786,19.786v79.998c0,11.914 9.692,21.606 21.596,21.606h14.136c11.914,0 21.596,-9.692 21.596,-21.606v-79.998c-0.001,-10.908 -8.868,-19.786 -19.787,-19.786zM452.787,464.737h-14.136c-3.589,0 -6.515,-2.926 -6.515,-6.525v-79.998c0,-2.594 2.111,-4.705 4.705,-4.705h17.755c2.594,0 4.705,2.111 4.705,4.705v79.998v0c0.001,3.599 -2.915,6.525 -6.514,6.525z"></path></g></g><g><g><path d="M194.647,219.028c-9.194,-3.378 -15.836,-5.818 -15.836,-14.336c0,-7.763 5.156,-11.699 15.323,-11.699c10.793,0 13.699,4.751 17.501,4.751c4.138,0 6.427,-4.391 6.427,-7.428c0,-6.282 -10.247,-9.397 -19.407,-10.219v-5.664c0,-3.94 -3.205,-7.145 -7.145,-7.145c-3.94,0 -7.145,3.205 -7.145,7.145v6.567c-12.525,2.974 -19.407,11.625 -19.407,24.443c0,17.55 12.92,22.405 23.304,26.308c10.166,3.82 18.197,6.838 18.197,18.445c0,9.587 -5.323,14.448 -15.824,14.448c-15.368,0 -15.512,-10.376 -21.374,-10.376c-3.63,0 -6.554,4.064 -6.554,7.428c0,5.942 8.849,13.752 21.658,15.779v5.473c0,3.94 3.205,7.145 7.145,7.145c3.94,0 7.145,-3.205 7.145,-7.145v-5.62c13.778,-2.593 21.658,-12.71 21.658,-27.883c-0.001,-20.987 -14.231,-26.215 -25.666,-30.417z"></path></g></g><g><g><path d="M400.99,426.915c-2.835,-2.735 -6.696,-4.424 -10.939,-4.424h-25.768c-4.695,0 -8.918,2.061 -11.813,5.318c-5.459,6.153 -3.609,12.839 -3.971,16.086v20.138c0,8.707 7.078,15.784 15.784,15.784h25.768c8.697,0 15.774,-7.078 15.774,-15.784v-25.768c0,-4.453 -1.86,-8.485 -4.835,-11.35zM390.051,464.737c-25.456,-0.312 -26.472,0.654 -26.472,-0.704v-25.768c0,-0.382 0.322,-0.694 0.704,-0.694h25.768c0.382,0 0.694,0.312 0.694,0.694c-0.302,25.517 0.643,26.472 -0.694,26.472z"></path></g></g><g><g><path d="M390.051,291.068h-25.768c-8.707,0 -15.784,7.078 -15.784,15.784v25.758c0,8.707 7.078,15.784 15.784,15.784h25.768c2.031,0 3.961,-0.382 5.741,-1.086c5.871,-2.302 10.034,-8.023 10.034,-14.699v-25.758c-0.001,-8.736 -7.119,-15.783 -15.775,-15.783zM390.051,333.314h-25.768c-0.382,0 -0.704,-0.312 -0.704,-0.704v-25.758c0,-1.357 0.935,-0.402 26.472,-0.704c0.382,0 0.694,0.312 0.694,0.704v25.758v0c0,0.392 -0.312,0.704 -0.694,0.704z"></path></g></g><g><g><path d="M395.792,359.514c-1.779,-0.704 -3.71,-1.086 -5.741,-1.086h-25.768c-8.707,0 -15.784,7.078 -15.784,15.784v25.758c0,8.707 7.078,15.784 15.784,15.784h25.768c8.697,0 15.774,-7.078 15.774,-15.784v-25.758c0,-6.675 -4.162,-12.396 -10.033,-14.698zM390.745,399.97c0,0.392 -0.312,0.704 -0.694,0.704h-25.768c-0.382,0 -0.704,-0.312 -0.704,-0.704v-25.758c0,-0.392 0.322,-0.704 0.704,-0.704h25.768c0.382,0 0.694,0.312 0.694,0.704z"></path></g></g><g><g><path d="M346.528,103.041h-18.941c-4.162,0 -7.54,3.378 -7.54,7.54c0,4.172 3.378,7.54 7.54,7.54h18.941c4.162,0 7.54,-3.368 7.54,-7.54c0.001,-4.162 -3.378,-7.54 -7.54,-7.54z"></path></g></g><g><g><path d="M297.425,103.041h-133.715c-4.162,0 -7.54,3.378 -7.54,7.54c0,4.172 3.378,7.54 7.54,7.54h133.716c4.162,0 7.54,-3.368 7.54,-7.54c0,-4.162 -3.378,-7.54 -7.541,-7.54z"></path></g></g><g><g><path d="M187.678,140.472h-23.968c-4.162,0 -7.54,3.378 -7.54,7.54c0,4.162 3.378,7.54 7.54,7.54h23.968c4.162,0 7.54,-3.378 7.54,-7.54c0,-4.162 -3.378,-7.54 -7.54,-7.54z"></path></g></g><g><g><path d="M346.528,140.472h-128.689c-4.162,0 -7.54,3.378 -7.54,7.54c0,4.162 3.378,7.54 7.54,7.54h128.689c4.162,0 7.54,-3.378 7.54,-7.54c0.001,-4.162 -3.378,-7.54 -7.54,-7.54z"></path></g></g><g><g><path d="M92.233,425.159c0,-1.895 0.698,-2.439 1.351,-2.801c2.026,-1.121 6.674,-1.451 10.932,0.739c1.131,0.581 2.413,1.24 4.081,1.24c7.437,0 13.319,-13.819 -4.446,-16.874v-0.475c0,-4.213 -3.428,-7.641 -7.641,-7.641c-4.213,0 -7.641,3.428 -7.641,7.641v1.45c-7.444,2.7 -11.655,8.839 -11.655,17.172c0,12.86 9.343,16.371 16.167,18.934c6.507,2.445 8.757,3.515 8.757,7.941c0,2.767 -0.745,5.328 -6.154,5.328c-7.882,0 -6.938,-6.23 -12.837,-6.23c-4.169,0 -7.286,4.123 -7.286,7.81c0,5.224 5.432,10.182 13.008,12.192v0.572c0,4.213 3.428,7.641 7.641,7.641c4.213,0 7.641,-3.427 7.641,-7.641v-0.772c8.198,-2.635 13.007,-9.694 13.007,-19.35c0,-22.913 -24.925,-19.472 -24.925,-26.876z"></path></g></g><g font-family="Inter, apple-system, BlinkMacSystemFont, &quot;Helvetica Neue&quot;, &quot;Segoe UI&quot;, &quot;Fira Sans&quot;, Roboto, Oxygen, Ubuntu, &quot;Droid Sans&quot;, Arial, sans-serif" font-weight="400" font-size="16" text-anchor="start"></g><g font-family="Inter, apple-system, BlinkMacSystemFont, &quot;Helvetica Neue&quot;, &quot;Segoe UI&quot;, &quot;Fira Sans&quot;, Roboto, Oxygen, Ubuntu, &quot;Droid Sans&quot;, Arial, sans-serif" font-weight="400" font-size="16" text-anchor="start"></g><g font-family="Inter, apple-system, BlinkMacSystemFont, &quot;Helvetica Neue&quot;, &quot;Segoe UI&quot;, &quot;Fira Sans&quot;, Roboto, Oxygen, Ubuntu, &quot;Droid Sans&quot;, Arial, sans-serif" font-weight="400" font-size="16" text-anchor="start"></g><g font-family="Inter, apple-system, BlinkMacSystemFont, &quot;Helvetica Neue&quot;, &quot;Segoe UI&quot;, &quot;Fira Sans&quot;, Roboto, Oxygen, Ubuntu, &quot;Droid Sans&quot;, Arial, sans-serif" font-weight="400" font-size="16" text-anchor="start"></g><g font-family="Inter, apple-system, BlinkMacSystemFont, &quot;Helvetica Neue&quot;, &quot;Segoe UI&quot;, &quot;Fira Sans&quot;, Roboto, Oxygen, Ubuntu, &quot;Droid Sans&quot;, Arial, sans-serif" font-weight="400" font-size="16" text-anchor="start"></g><g font-family="Inter, apple-system, BlinkMacSystemFont, &quot;Helvetica Neue&quot;, &quot;Segoe UI&quot;, &quot;Fira Sans&quot;, Roboto, Oxygen, Ubuntu, &quot;Droid Sans&quot;, Arial, sans-serif" font-weight="400" font-size="16" text-anchor="start"></g><g font-family="Inter, apple-system, BlinkMacSystemFont, &quot;Helvetica Neue&quot;, &quot;Segoe UI&quot;, &quot;Fira Sans&quot;, Roboto, Oxygen, Ubuntu, &quot;Droid Sans&quot;, Arial, sans-serif" font-weight="400" font-size="16" text-anchor="start"></g><g font-family="Inter, apple-system, BlinkMacSystemFont, &quot;Helvetica Neue&quot;, &quot;Segoe UI&quot;, &quot;Fira Sans&quot;, Roboto, Oxygen, Ubuntu, &quot;Droid Sans&quot;, Arial, sans-serif" font-weight="400" font-size="16" text-anchor="start"></g><g font-family="Inter, apple-system, BlinkMacSystemFont, &quot;Helvetica Neue&quot;, &quot;Segoe UI&quot;, &quot;Fira Sans&quot;, Roboto, Oxygen, Ubuntu, &quot;Droid Sans&quot;, Arial, sans-serif" font-weight="400" font-size="16" text-anchor="start"></g><g font-family="Inter, apple-system, BlinkMacSystemFont, &quot;Helvetica Neue&quot;, &quot;Segoe UI&quot;, &quot;Fira Sans&quot;, Roboto, Oxygen, Ubuntu, &quot;Droid Sans&quot;, Arial, sans-serif" font-weight="400" font-size="16" text-anchor="start"></g><g font-family="Inter, apple-system, BlinkMacSystemFont, &quot;Helvetica Neue&quot;, &quot;Segoe UI&quot;, &quot;Fira Sans&quot;, Roboto, Oxygen, Ubuntu, &quot;Droid Sans&quot;, Arial, sans-serif" font-weight="400" font-size="16" text-anchor="start"></g><g font-family="Inter, apple-system, BlinkMacSystemFont, &quot;Helvetica Neue&quot;, &quot;Segoe UI&quot;, &quot;Fira Sans&quot;, Roboto, Oxygen, Ubuntu, &quot;Droid Sans&quot;, Arial, sans-serif" font-weight="400" font-size="16" text-anchor="start"></g><g font-family="Inter, apple-system, BlinkMacSystemFont, &quot;Helvetica Neue&quot;, &quot;Segoe UI&quot;, &quot;Fira Sans&quot;, Roboto, Oxygen, Ubuntu, &quot;Droid Sans&quot;, Arial, sans-serif" font-weight="400" font-size="16" text-anchor="start"></g><g font-family="Inter, apple-system, BlinkMacSystemFont, &quot;Helvetica Neue&quot;, &quot;Segoe UI&quot;, &quot;Fira Sans&quot;, Roboto, Oxygen, Ubuntu, &quot;Droid Sans&quot;, Arial, sans-serif" font-weight="400" font-size="16" text-anchor="start"></g><g font-family="Inter, apple-system, BlinkMacSystemFont, &quot;Helvetica Neue&quot;, &quot;Segoe UI&quot;, &quot;Fira Sans&quot;, Roboto, Oxygen, Ubuntu, &quot;Droid Sans&quot;, Arial, sans-serif" font-weight="400" font-size="16" text-anchor="start"></g></g></g></svg>