<svg id="Capa_1" fill="#595959" enable-background="new 0 0 512 512" height="512" viewBox="0 0 512 512" width="512" xmlns="http://www.w3.org/2000/svg"><g><path d="m117.654 460h-68.404c-1.378 0-2.5-1.121-2.5-2.5v-440c0-1.379 1.122-2.5 2.5-2.5h350c1.378 0 2.5 1.121 2.5 2.5v161.5c0 4.143 3.358 7.5 7.5 7.5s7.5-3.357 7.5-7.5v-161.5c0-9.649-7.851-17.5-17.5-17.5h-350c-9.649 0-17.5 7.851-17.5 17.5v440c0 9.649 7.851 17.5 17.5 17.5h68.404c4.142 0 7.5-3.357 7.5-7.5s-3.358-7.5-7.5-7.5z"/><path d="m79.25 40c-4.142 0-7.5 3.357-7.5 7.5v30c0 4.143 3.358 7.5 7.5 7.5h290c4.142 0 7.5-3.357 7.5-7.5v-30c0-4.143-3.358-7.5-7.5-7.5zm282.5 30h-275v-15h275z"/><path d="m295.5 195h44c4.142 0 7.5-3.357 7.5-7.5s-3.358-7.5-7.5-7.5h-44c-4.142 0-7.5 3.357-7.5 7.5s3.358 7.5 7.5 7.5z"/><path d="m119.75 195h106c4.142 0 7.5-3.357 7.5-7.5s-3.358-7.5-7.5-7.5h-106c-4.142 0-7.5 3.357-7.5 7.5s3.358 7.5 7.5 7.5z"/><path d="m339.5 250h-44c-4.142 0-7.5 3.357-7.5 7.5s3.358 7.5 7.5 7.5h44c4.142 0 7.5-3.357 7.5-7.5s-3.358-7.5-7.5-7.5z"/><path d="m225.75 250h-106c-4.142 0-7.5 3.357-7.5 7.5s3.358 7.5 7.5 7.5h106c4.142 0 7.5-3.357 7.5-7.5s-3.358-7.5-7.5-7.5z"/><path d="m225.75 320h-106c-4.142 0-7.5 3.357-7.5 7.5s3.358 7.5 7.5 7.5h106c4.142 0 7.5-3.357 7.5-7.5s-3.358-7.5-7.5-7.5z"/><path d="m225.75 390h-106c-4.142 0-7.5 3.357-7.5 7.5s3.358 7.5 7.5 7.5h106c4.142 0 7.5-3.357 7.5-7.5s-3.358-7.5-7.5-7.5z"/><path d="m416.75 294.197v-80.197c0-4.143-3.358-7.5-7.5-7.5s-7.5 3.357-7.5 7.5v73.94c-7.828-2.627-16.028-4.433-24.5-5.316v-165.124c0-4.143-3.358-7.5-7.5-7.5h-196.415c-4.142 0-7.5 3.357-7.5 7.5s3.358 7.5 7.5 7.5h79.915v20h-166.5v-20h51.585c4.142 0 7.5-3.357 7.5-7.5s-3.358-7.5-7.5-7.5h-59.085c-4.142 0-7.5 3.357-7.5 7.5v310c0 4.143 3.358 7.5 7.5 7.5h177.46c3.118 8.879 7.295 17.263 12.381 25h-116.437c-4.142 0-7.5 3.357-7.5 7.5s3.358 7.5 7.5 7.5h128.174c21.023 22.737 51.086 37 84.422 37 63.411 0 115-51.589 115-115 0-44.907-25.877-83.878-63.5-102.803zm-330-64.197h166.5v55h-166.5zm0 70h166.5v55h-166.5zm181.5 35.289v-35.289h35.289c-14.173 9.049-26.24 21.116-35.289 35.289zm70.795-50.274c-.099-.004-.195-.015-.295-.015h-70.5v-55h94v52.039c-7.961.205-15.722 1.225-23.205 2.976zm23.205-70.015h-94v-55h94zm-94-90h94v20h-94zm-15 35v55h-166.5v-55zm-166.5 260v-50h166.709c-2.093 8.663-3.209 17.703-3.209 27 0 7.875.797 15.566 2.312 23zm278.5 77c-55.14 0-100-44.859-100-100s44.86-100 100-100 100 44.859 100 100-44.86 100-100 100z"/><path d="m365.25 312c-46.869 0-85 38.131-85 85s38.131 85 85 85c24.698 0 48.137-10.722 64.308-29.414 2.71-3.133 2.367-7.869-.766-10.579-3.133-2.712-7.869-2.367-10.579.765-13.319 15.397-32.624 24.228-52.963 24.228-38.598 0-70-31.402-70-70s31.402-70 70-70 70 31.402 70 70c0 6.091-.782 12.133-2.323 17.959-1.06 4.004 1.328 8.109 5.333 9.169 4.002 1.06 8.109-1.329 9.168-5.333 1.873-7.077 2.822-14.41 2.822-21.795 0-46.869-38.131-85-85-85z"/><path d="m364.986 451.102c4.142 0 7.5-3.357 7.5-7.5v-5.133c9.249-2.629 16.409-10.031 18.419-19.792 2.49-12.091-3.658-23.578-15.299-28.585-3.016-1.297-5.713-2.294-8.094-3.174-4.378-1.617-7.542-2.786-9.298-4.565-1.62-1.641-2.271-4.337-1.658-6.87.363-1.502 1.498-4.193 5.013-5.346 7.349-2.403 12.129 1.547 12.66 2.014 3.091 2.758 7.832 2.487 10.589-.604s2.487-7.832-.604-10.589c-2.737-2.442-6.82-4.724-11.729-5.844v-4.714c0-4.143-3.358-7.5-7.5-7.5s-7.5 3.357-7.5 7.5v5.316c-.196.06-.389.104-.586.169-7.503 2.458-13.082 8.466-14.922 16.07-1.835 7.583.297 15.606 5.564 20.939 4.101 4.153 9.046 5.98 14.771 8.096 2.316.855 4.71 1.741 7.366 2.883 7.637 3.285 6.932 9.848 6.534 11.78-.843 4.092-4.289 8.871-11.228 8.871-5.438 0-8.847-.57-14.666-3.947-3.583-2.079-8.172-.861-10.251 2.722-2.08 3.582-.861 8.172 2.721 10.251 5.613 3.258 10.137 4.801 14.696 5.485v4.568c.002 4.141 3.36 7.499 7.502 7.499z"/></g></svg> 