<svg id="Layer_1" enable-background="new 0 0 512 512" viewBox="0 0 512 512" xmlns="http://www.w3.org/2000/svg" fill="#595959"><path d="m55.05 258.66c-3.4 0-6.46-1.39-8.67-3.6s-3.57-5.27-3.57-8.65c0-3.37 1.36-6.43 3.57-8.65s5.27-3.6 8.67-3.6c3.37 0 6.43 1.39 8.65 3.6 2.21 2.21 3.57 5.27 3.57 8.65 0 3.37-1.36 6.44-3.57 8.65-2.21 2.22-5.27 3.6-8.65 3.6zm430.95 41.11.91 2.44c-8.39 5.44-18.34 8.65-29.03 8.82l-.48 1.73c-7.03 25.03-18.6 48.13-33.7 68.37-15.34 20.49-34.38 38.13-56.15 51.87l-4.39 2.75v65.03c0 6.18-5.05 11.23-11.23 11.23h-191.85c-6.18 0-11.23-5.05-11.23-11.23v-65.03l-4.39-2.75c-21.77-13.75-40.82-31.38-56.13-51.87-15.14-20.24-26.7-43.34-33.73-68.37l-.48-1.73c-10.69-.17-20.64-3.37-29-8.82l.88-2.44c1.64-4.45 4.59-8.28 8.42-10.94 3.69-2.58 8.16-4.11 13.04-4.11h15.17c4.88 0 9.38 1.53 13.04 4.11 3.83 2.66 6.8 6.49 8.42 10.94l.91 2.44c-4.39 2.83-9.24 5.07-14.37 6.6 6.49 22.79 17.06 43.88 30.93 62.42 13.12 17.55 29.14 32.8 47.31 44.99v-3.06c0-6.18 5.05-11.23 11.23-11.23h191.85c6.18 0 11.23 5.05 11.23 11.23v3.06c18.2-12.19 34.21-27.44 47.31-44.99 13.86-18.54 24.46-39.63 30.93-62.42-5.13-1.53-9.95-3.77-14.34-6.6l.88-2.44c1.64-4.45 4.62-8.28 8.42-10.94 3.69-2.58 8.19-4.11 13.07-4.11h15.14c4.88 0 9.38 1.53 13.07 4.11 3.75 2.66 6.73 6.49 8.34 10.94zm-296.56 167.41v-20.41c0-2.15.88-4.08 2.3-5.5 1.39-1.42 3.35-2.3 5.47-2.3h10.37c4.56 0 8.28-3.69 8.28-8.25s-3.71-8.25-8.28-8.25h-10.37c-6.69 0-12.76 2.72-17.15 7.11-4.42 4.39-7.14 10.49-7.14 17.18v20.41c0 6.69 2.72 12.76 7.14 17.15 4.39 4.42 10.46 7.14 17.15 7.14h10.37c4.56 0 8.28-3.71 8.28-8.25 0-4.56-3.71-8.28-8.28-8.28h-10.37c-2.13 0-4.08-.88-5.47-2.3-1.42-1.37-2.3-3.32-2.3-5.45zm65.62-3.32c4.93-.45 9.35-2.66 12.67-5.98 3.77-3.77 6.09-8.96 6.09-14.66 0-5.73-2.32-10.91-6.09-14.68-3.74-3.74-8.93-6.07-14.66-6.07h-17.86c-4.56 0-8.28 3.69-8.28 8.25v52.5c0 4.54 3.71 8.25 8.28 8.25 4.56 0 8.25-3.71 8.25-8.25v-7.57l13.41 13.41c3.23 3.2 8.45 3.2 11.68 0 3.23-3.23 3.23-8.48 0-11.68zm84.02-33.13h-.03c0-2.89-1.53-5.7-4.22-7.2-3.97-2.21-8.99-.77-11.2 3.2l-12.05 21.63-11.71-21.03c-1.3-2.86-4.17-4.85-7.54-4.85-4.54 0-8.25 3.69-8.25 8.25v52.5c0 4.54 3.71 8.25 8.25 8.25 4.56 0 8.28-3.71 8.28-8.25v-20.75l3.77 6.8c2.21 3.97 7.23 5.41 11.2 3.2 1.45-.79 2.55-1.96 3.26-3.32l3.74-6.69v20.75c0 4.54 3.69 8.25 8.25 8.25s8.25-3.71 8.25-8.25zm-86 8.25h-9.61v8.48h9.61c1.16 0 2.21-.48 2.98-1.25s1.25-1.84 1.25-2.98c0-1.16-.48-2.21-1.25-3-.77-.77-1.82-1.25-2.98-1.25zm11.57-384.86c2.24-2.21 3.6-5.27 3.6-8.67 0-3.37-1.36-6.43-3.6-8.65-2.21-2.21-5.27-3.57-8.65-3.57-3.37 0-6.43 1.36-8.65 3.57-2.21 2.21-3.6 5.27-3.6 8.65 0 3.4 1.39 6.46 3.6 8.67s5.27 3.57 8.65 3.57c3.37 0 6.43-1.36 8.65-3.57zm200.97 200.94c2.21-2.21 3.57-5.27 3.57-8.65 0-3.37-1.36-6.43-3.57-8.65s-5.27-3.6-8.65-3.6c-3.37 0-6.43 1.39-8.67 3.6-2.21 2.21-3.57 5.27-3.57 8.65 0 3.37 1.36 6.44 3.57 8.65 2.24 2.21 5.3 3.6 8.67 3.6 3.38 0 6.44-1.38 8.65-3.6zm-238.67-156.24-.88 2.41c8.62 5.58 18.91 8.84 29.93 8.84 11.06 0 21.32-3.26 29.93-8.84l-.88-2.41c-1.64-4.48-4.62-8.31-8.42-10.97-3.69-2.58-8.19-4.08-13.07-4.08h-15.14c-4.88 0-9.38 1.5-13.07 4.08-3.78 2.66-6.76 6.49-8.4 10.97zm230.93 102.16-.48-1.73c-9.84-34.98-28.52-66.22-53.46-91.16s-56.21-43.62-91.19-53.46l-1.73-.51c-.48-29.97-24.92-54.12-55.02-54.12-30.08 0-54.54 24.15-55.02 54.11l-1.73.51c-34.98 9.84-66.22 28.52-91.19 53.46-24.94 24.94-43.62 56.18-53.46 91.16l-.48 1.73c-29.97.52-54.12 24.95-54.12 55.03 0 13.01 4.54 24.97 12.08 34.41 2.95-6.04 7.43-11.23 12.9-15.08 3.86-2.69 8.16-4.71 12.81-5.9-1.08-.82-2.13-1.73-3.09-2.69-5.19-5.19-8.42-12.39-8.42-20.32 0-7.94 3.23-15.14 8.42-20.32 5.22-5.22 12.42-8.42 20.35-8.42s15.11 3.2 20.32 8.42c5.19 5.19 8.42 12.39 8.42 20.32 0 7.94-3.23 15.14-8.42 20.32-.96.96-1.98 1.87-3.09 2.69 4.65 1.19 8.96 3.2 12.81 5.9 5.47 3.85 9.95 9.04 12.9 15.08 7.57-9.44 12.08-21.4 12.08-34.41 0-24.97-16.64-46.06-39.46-52.78 9.07-31.98 26.25-60.58 49.12-83.45 22.9-22.9 51.51-40.05 83.48-49.15 2.04 6.95 5.41 13.32 9.84 18.82 2.95-6.04 7.4-11.23 12.9-15.05 3.83-2.69 8.16-4.73 12.81-5.92-1.11-.82-2.13-1.7-3.09-2.66-5.22-5.22-8.42-12.39-8.42-20.35 0-7.94 3.2-15.11 8.42-20.32 5.19-5.19 12.39-8.42 20.32-8.42s15.14 3.23 20.32 8.42c5.22 5.22 8.45 12.39 8.45 20.32 0 7.97-3.23 15.14-8.45 20.35-.96.96-1.98 1.84-3.06 2.66 4.62 1.19 8.96 3.23 12.78 5.92 5.5 3.83 9.98 9.01 12.93 15.05 4.39-5.5 7.77-11.88 9.84-18.82 31.95 9.1 60.55 26.25 83.45 49.15 22.9 22.88 40.05 51.48 49.12 83.45-22.79 6.72-39.46 27.81-39.46 52.78 0 13.01 4.54 24.97 12.08 34.41 2.95-6.04 7.43-11.23 12.93-15.08 3.83-2.69 8.16-4.71 12.78-5.9-1.08-.82-2.13-1.73-3.06-2.69-5.22-5.19-8.45-12.39-8.45-20.32 0-7.94 3.23-15.14 8.45-20.32 5.19-5.22 12.39-8.42 20.32-8.42s15.11 3.2 20.32 8.42c5.22 5.19 8.42 12.39 8.42 20.32 0 7.94-3.2 15.14-8.42 20.32-.96.96-1.98 1.87-3.09 2.69 4.65 1.19 8.96 3.2 12.81 5.9 5.5 3.85 9.95 9.04 12.9 15.08 7.57-9.44 12.08-21.4 12.08-34.41.02-30.08-24.11-54.51-54.1-55.02zm-285.7 25c.96-2.72 2.1-5.41 3.32-8.02l-11.93-23.41c-2.18-4.28-1.39-9.24 2.01-12.61l16.36-16.36c3.37-3.4 8.33-4.17 12.61-2.01l23.41 11.93c2.61-1.22 5.27-2.35 8.02-3.32l8.14-25c1.47-4.56 5.53-7.51 10.32-7.51h23.13c4.79 0 8.84 2.95 10.35 7.51l8.11 25c2.75.96 5.41 2.1 8.02 3.32l23.44-11.93c4.25-2.15 9.21-1.39 12.61 2.01l16.36 16.36c3.37 3.37 4.17 8.33 1.98 12.61l-11.93 23.41c1.25 2.61 2.35 5.3 3.34 8.02l25 8.14c4.54 1.47 7.48 5.53 7.48 10.32v23.13c0 4.79-2.95 8.84-7.48 10.35l-25 8.11c-.99 2.75-2.1 5.41-3.34 8.02l11.93 23.44c2.18 4.25 1.39 9.21-1.98 12.61l-16.36 16.36c-3.4 3.37-8.36 4.17-12.61 1.98l-23.44-11.93c-2.61 1.25-5.27 2.35-8.02 3.34l-8.11 25c-1.5 4.54-5.56 7.48-10.35 7.48h-23.13c-4.79 0-8.84-2.95-10.32-7.48l-8.14-25c-2.72-.99-5.41-2.1-8.02-3.34l-23.41 11.93c-4.28 2.18-9.24 1.39-12.61-1.98l-16.36-16.36c-3.4-3.4-4.2-8.36-2.01-12.61l11.93-23.41c-1.22-2.64-2.35-5.3-3.32-8.05l-25-8.11c-4.56-1.5-7.51-5.56-7.51-10.35v-23.13c0-4.79 2.95-8.84 7.51-10.32zm30.64 30.02c0 29.31 23.9 53.18 53.18 53.18 29.31 0 53.18-23.87 53.18-53.18 0-29.28-23.87-53.18-53.18-53.18-29.28 0-53.18 23.9-53.18 53.18z"/></svg>