<svg id="Layer_1" enable-background="new 0 0 468 468" viewBox="0 0 468 468" xmlns="http://www.w3.org/2000/svg"  fill="#42868a"><g><g><g><path d="m455.908 112.055h-443.908c-6.627 0-12-5.373-12-12v-88.055c0-6.627 5.373-12 12-12h443.908c6.627 0 12 5.373 12 12v88.055c0 6.627-5.373 12-12 12zm-431.908-24h419.908v-64.055h-419.908z"/><path d="m455.908 468h-443.908c-6.627 0-12-5.373-12-12v-267.945c0-6.627 5.373-12 12-12s12 5.373 12 12v255.945h419.908v-255.945c0-6.627 5.373-12 12-12s12 5.373 12 12v267.945c0 6.627-5.373 12-12 12z"/></g><g><path d="m314.112 68.534h-181.745c-6.627 0-12-5.373-12-12s5.373-12 12-12h181.745c6.627 0 12 5.373 12 12s-5.372 12-12 12z"/><g><circle cx="403.05" cy="56.534" r="12"/><circle cx="363.05" cy="56.534" r="12"/></g></g></g><g><path d="m338.556 414.04c-24.96 0-45.266-20.31-45.266-45.273v-105.265c-18.64-13.226-29.57-33.654-29.57-55.874 0-28.032 17.743-53.322 45.202-64.43 7.56-3.31 16.735 2.876 16.5 11.125v40.77l13.135 10.727 13.135-10.727v-40.77c-.236-8.249 8.942-14.435 16.5-11.125 27.459 11.107 45.201 36.397 45.201 64.43 0 22.221-10.93 42.648-29.57 55.874v105.265c-.001 24.963-20.308 45.273-45.267 45.273zm-37.135-237.91c-8.635 8.401-13.702 19.598-13.702 31.498 0 15.839 8.816 30.399 23.582 38.947 3.706 2.146 5.988 6.103 5.988 10.385v111.806c0 11.73 9.54 21.273 21.267 21.273s21.267-9.543 21.267-21.273v-111.806c0-4.282 2.282-8.24 5.988-10.385 14.767-8.548 23.582-23.108 23.582-38.947 0-11.9-5.067-23.097-13.702-31.497v24.655c0 3.603-1.619 7.016-4.41 9.294l-25.135 20.526c-4.417 3.607-10.764 3.607-15.181 0l-25.135-20.526c-2.791-2.279-4.41-5.691-4.41-9.294v-24.656z"/><g><path d="m221.675 252h-155.159c-6.627 0-12-5.373-12-12v-86.111c0-6.627 5.373-12 12-12h155.158c6.627 0 12 5.373 12 12v86.111c.001 6.627-5.372 12-11.999 12zm-143.159-24h131.159v-62.111h-131.159z"/><g><path d="m221.675 305.92h-155.159c-6.627 0-12-5.373-12-12s5.373-12 12-12h155.158c6.627 0 12 5.373 12 12s-5.372 12-11.999 12z"/><path d="m221.675 359.92h-48.085c-6.627 0-12-5.373-12-12s5.373-12 12-12h48.085c6.627 0 12 5.373 12 12s-5.373 12-12 12z"/><path d="m123.6 359.92h-57.084c-6.627 0-12-5.373-12-12s5.373-12 12-12h57.084c6.627 0 12 5.373 12 12s-5.373 12-12 12z"/><path d="m221.675 413.92h-155.159c-6.627 0-12-5.373-12-12s5.373-12 12-12h155.158c6.627 0 12 5.373 12 12s-5.372 12-11.999 12z"/></g></g></g><ellipse cx="455.003" cy="145.72" rx="12.997" ry="13"/><ellipse cx="13.094" cy="145.72" rx="12.997" ry="13"/></g><g/><g/><g/><g/><g/><g/><g/><g/><g/><g/><g/><g/><g/><g/><g/></svg>