<svg viewBox="-18 0 512 512" xmlns="http://www.w3.org/2000/svg" fill="#595959"><path d="m360 397.195312c3.171875-2.128906 6.242188-4.386718 9.214844-6.765624l85.179687 85.175781 21.210938-21.210938-85.175781-85.175781c18.492187-23.105469 29.570312-52.390625 29.570312-84.21875 0-46.707031-23.84375-87.945312-60-112.191406v-172.808594h-261.214844l-98.785156 98.785156v413.214844h360zm-105-127.195312c0-16.542969 13.457031-30 30-30s30 13.457031 30 30-13.457031 30-30 30-30-13.457031-30-30zm30 60c26.6875 0 50.019531 17.890625 57.492188 42.816406-16.527344 10.855469-36.285157 17.183594-57.492188 17.183594s-40.964844-6.328125-57.492188-17.183594c7.472657-24.925781 30.804688-42.816406 57.492188-42.816406zm105-45c0 25.160156-8.898438 48.28125-23.710938 66.382812-7.859374-16.519531-20.75-30.742187-37.769531-40.144531 10.203125-10.761719 16.480469-25.277343 16.480469-41.238281 0-33.085938-26.917969-60-60-60-33.085938 0-60 26.914062-60 60 0 15.960938 6.277344 30.476562 16.476562 41.238281-17.011718 9.402344-29.90625 23.617188-37.765624 40.144531-14.8125-18.101562-23.714844-41.222656-23.714844-66.382812 0-57.898438 47.105468-105 105-105 57.898437 0 105.003906 47.101562 105.003906 105zm-300-233.785156v38.785156h-38.785156zm-60 430.785156v-362h90v-90h210v127.722656c-14.082031-4.996094-29.226562-7.722656-45-7.722656h-225v29.898438h140.25c-19.226562 15.550781-34.109375 36.359374-42.527344 60.101562h-97.722656v29.898438h90.839844c-.550782 4.929687-.839844 9.929687-.839844 15 0 15.773437 2.726562 31.019531 7.722656 45.101562h-97.722656v30h112.804688c24.25 36.152344 65.488281 60 112.195312 60 15.773438 0 30.917969-2.726562 45-7.722656v69.722656zm0 0"/><path d="m180 60h120v30h-120zm0 0"/><path d="m60 420h150v30h-150zm0 0"/></svg>