<svg id="Layer_1" enable-background="new 0 0 512 512" height="512" viewBox="0 0 512 512" width="512" xmlns="http://www.w3.org/2000/svg" fill="#42868a"><path clip-rule="evenodd" d="m256 205.109c62.132 0 112.5 50.368 112.5 112.5s-50.368 112.5-112.5 112.5-112.5-50.368-112.5-112.5 50.368-112.5 112.5-112.5zm-102.775-57.134c-14.663 9.57-27.882 21.085-39.275 34.164-11.345 13.024-20.938 27.652-28.405 43.512-1.646 3.488-.152 7.651 3.336 9.297s7.651.152 9.297-3.336c6.891-14.637 15.783-28.181 26.326-40.285 10.608-12.177 22.833-22.845 36.322-31.649 3.231-2.099 4.15-6.421 2.051-9.652-2.099-3.232-6.421-4.15-9.652-2.051zm197.949 11.703c13.488 8.804 25.714 19.471 36.322 31.649 10.544 12.104 19.435 25.648 26.326 40.285 1.646 3.488 5.808 4.982 9.297 3.336 3.488-1.646 4.982-5.809 3.336-9.297-7.467-15.86-17.06-30.489-28.404-43.512-11.393-13.079-24.612-24.594-39.275-34.164-3.232-2.099-7.553-1.181-9.652 2.051-2.1 3.231-1.181 7.553 2.05 9.652zm-174.048 317.138c-3.503-1.616-5.034-5.766-3.418-9.27 1.616-3.503 5.766-5.034 9.27-3.418 11.238 5.191 23.14 9.222 35.55 11.938 12.055 2.639 24.593 4.029 37.472 4.029s25.417-1.391 37.472-4.029c12.41-2.716 24.312-6.747 35.55-11.938 3.503-1.616 7.654-.086 9.27 3.418 1.616 3.503.086 7.654-3.418 9.27-12.185 5.628-25.058 9.992-38.449 12.923-13.037 2.854-26.564 4.357-40.425 4.357s-27.388-1.504-40.425-4.357c-13.391-2.931-26.264-7.294-38.449-12.923zm-36.126-59.979c0 34.519-125 34.519-125 0s27.986-62.5 62.5-62.5c34.519 0 62.5 27.98 62.5 62.5zm318.02-90.022c0 14.093-11.424 25.522-25.517 25.522s-25.522-11.428-25.522-25.522 11.428-25.517 25.522-25.517c14.093 0 25.517 11.424 25.517 25.517zm36.98 100.022c0 34.519-125 34.519-125 0s27.985-62.5 62.5-62.5c34.519 0 62.5 27.981 62.5 62.5zm-214.48-383.419c0 14.095-11.425 25.52-25.52 25.52s-25.52-11.425-25.52-25.52c0-14.09 11.425-25.515 25.52-25.515s25.52 11.425 25.52 25.515zm36.98 100.884c0 34.521-125 34.521-125 0 0-34.516 27.979-62.5 62.5-62.5 34.516 0 62.5 27.984 62.5 62.5zm-214.481 172.513c0 14.093-11.424 25.522-25.517 25.522-14.094 0-25.522-11.428-25.522-25.522s11.428-25.517 25.522-25.517 25.517 11.423 25.517 25.517zm158.981-62.999v-4.418c0-3.866-3.134-7-7-7s-7 3.134-7 7v4.418c0 3.866 3.134 7 7 7s7-3.134 7-7zm-7 74.899c1.413 0 2.763-.264 4.006-.745l16.471 9.509c3.337 1.918 7.598.767 9.516-2.57s.767-7.598-2.57-9.516l-16.447-9.496c-.43-2.778-1.888-5.215-3.975-6.911v-29.85c0-3.866-3.134-7-7-7s-7 3.134-7 7v29.85c-2.505 2.036-4.106 5.142-4.106 8.622-.001 6.135 4.971 11.107 11.105 11.107zm40.16 38.953 3.124 3.124c2.733 2.733 7.165 2.733 9.899 0 2.733-2.733 2.733-7.165 0-9.899l-3.124-3.124c-2.733-2.733-7.165-2.733-9.899 0s-2.734 7.166 0 9.899zm23.634-43.059h4.418c3.866 0 7-3.134 7-7s-3.134-7-7-7h-4.418c-3.866 0-7 3.134-7 7s3.134 7 7 7zm-13.736-47.159 3.124-3.124c2.733-2.733 2.733-7.165 0-9.899-2.733-2.733-7.165-2.733-9.899 0l-3.124 3.124c-2.733 2.733-2.733 7.165 0 9.899 2.734 2.733 7.166 2.733 9.899 0zm-90.218-9.899-3.124-3.124c-2.733-2.733-7.165-2.733-9.899 0-2.733 2.733-2.733 7.165 0 9.899l3.124 3.124c2.733 2.733 7.165 2.733 9.899 0s2.734-7.166 0-9.899zm-23.634 43.058h-4.418c-3.866 0-7 3.134-7 7s3.134 7 7 7h4.418c3.866 0 7-3.134 7-7s-3.134-7-7-7zm13.736 47.16-3.124 3.124c-2.733 2.733-2.733 7.165 0 9.899 2.733 2.733 7.165 2.733 9.899 0l3.124-3.124c2.733-2.733 2.733-7.165 0-9.899-2.734-2.733-7.166-2.733-9.899 0zm43.058 23.634v4.418c0 3.866 3.134 7 7 7s7-3.134 7-7v-4.418c0-3.866-3.134-7-7-7s-7 3.134-7 7zm7-159.476c-26.421 0-50.342 10.71-67.657 28.025s-28.025 41.236-28.025 67.657 10.71 50.342 28.025 67.657 41.236 28.025 67.657 28.025 50.342-10.71 67.657-28.025 28.025-41.236 28.025-67.657-10.71-50.342-28.025-67.657-41.236-28.025-67.657-28.025zm57.759 37.924c-14.781-14.781-35.202-23.924-57.759-23.924s-42.978 9.143-57.759 23.924-23.924 35.202-23.924 57.758 9.143 42.977 23.924 57.758 35.202 23.924 57.759 23.924 42.978-9.143 57.759-23.924 23.924-35.202 23.924-57.758-9.143-42.977-23.924-57.758z" fill-rule="evenodd"/></svg>