<svg clip-rule="evenodd" fill-rule="evenodd" height="8.467mm" image-rendering="optimizeQuality" shape-rendering="geometricPrecision" text-rendering="geometricPrecision" viewBox="0 0 846.66 846.66" width="8.467mm" xmlns="http://www.w3.org/2000/svg" fill="#595959"><g id="Layer_x0020_1"><path d="m468.82 760.68h-458.82v-741.2h395.54l210.12 206.78v174.75c120.54-4.34 221 92.44 221 213.01 0 117.72-95.44 213.16-213.16 213.16-58.71 0-114.3-23.92-154.68-66.5zm90.54-59.18h46.61v40.53h-46.61zm97.76 0h46.6v40.53h-46.6zm-81.98-295.12v-151.45h-198.07v-194.93h-326.55v660.16h388.08c-17.98-31.25-28.26-67.49-28.26-106.14 0-99.17 68.5-185.3 164.8-207.64zm48.36 35.01c-95.34 0-172.64 77.29-172.64 172.63 0 95.35 77.29 172.64 172.64 172.64 95.34 0 172.64-77.29 172.64-172.64 0-95.34-77.3-172.63-172.64-172.63zm-117.74 61.14h77.61v56.48h186.92l-48.94 131.75h-178.5v-147.71h-37.09zm77.61 97v50.71h109.97l18.84-50.71zm-491.19-454.76h236.34v40.52h-236.34zm267.88 432.71v96.13h-274.24v-96.13zm-40.52 40.52h-193.2v15.09h193.2zm90.05-193.01v96.13h-323.77v-96.13zm-40.52 40.52h-242.73v15.09h242.73zm70.95-187.36v96.13h-354.2v-96.13zm-40.52 40.52h-273.16v15.09h273.16zm146.51-104.26-128.42-126.39v126.39z" fill-rule="nonzero"/></g></svg>