<svg height="512" viewBox="0 0 32 32" width="512" xmlns="http://www.w3.org/2000/svg" fill="#595959"><g id="workflow"><path d="m22 8h-12a2.002 2.002 0 0 1 -2-2v-4a2.002 2.002 0 0 1 2-2h12a2.002 2.002 0 0 1 2 2v4a2.002 2.002 0 0 1 -2 2zm-12-6v4h12.0015l-.0015-4z"/><path d="m22 20h-12a2.002 2.002 0 0 1 -2-2v-4a2.002 2.002 0 0 1 2-2h12a2.002 2.002 0 0 1 2 2v4a2.002 2.002 0 0 1 -2 2zm-12-6v4h12.0015l-.0015-4z"/><path d="m22 32h-12a2.002 2.002 0 0 1 -2-2v-4a2.002 2.002 0 0 1 2-2h12a2.002 2.002 0 0 1 2 2v4a2.002 2.002 0 0 1 -2 2zm-12-6v4h12.0015l-.0015-4z"/><path d="m5 5h-4a1 1 0 0 1 0-2h4a1 1 0 0 1 0 2z"/><path d="m4 7a1 1 0 0 1 -.707-1.707l1.297-1.2979-1.3022-1.32a1 1 0 1 1 1.4241-1.4041l2 2.0269a1 1 0 0 1 -.0049 1.4091l-2 2a.9967.9967 0 0 1 -.707.293z"/><path d="m30 29h-4a1 1 0 0 1 0-2h4a1 1 0 0 1 0 2z"/><path d="m29 31a1 1 0 0 1 -.707-1.707l1.297-1.2979-1.3022-1.32a1 1 0 1 1 1.4238-1.4043l2 2.0269a1 1 0 0 1 -.0049 1.4091l-2 2a.9967.9967 0 0 1 -.7067.2932z"/><path d="m25 17h-2a1 1 0 0 1 0-2h2a5 5 0 0 0 0-10h-2a1 1 0 0 1 0-2h2a7 7 0 0 1 0 14z"/><path d="m9 29h-2a7 7 0 0 1 0-14h2a1 1 0 0 1 0 2h-2a5 5 0 0 0 0 10h2a1 1 0 0 1 0 2z"/><path d="m18 5h-4a1 1 0 0 1 0-2h4a1 1 0 0 1 0 2z"/><path d="m18 17h-4a1 1 0 0 1 0-2h4a1 1 0 0 1 0 2z"/><path d="m18 29h-4a1 1 0 0 1 0-2h4a1 1 0 0 1 0 2z"/></g></svg>