<svg id="Layer_1" enable-background="new 0 0 512 512" height="512" viewBox="0 0 512 512" width="512" xmlns="http://www.w3.org/2000/svg" fill="#42868a"><path d="m496 205.532h-49.167l32.779-77.802c2.604-6.184 1.075-13.336-3.832-17.913l-74.098-69.111c-6.303-5.878-16.131-5.708-22.227.387l-10.723 10.722c-7.052-3.606-15.027-5.654-23.477-5.654-17.877 0-34.25 9.037-43.798 24.173-3.987 6.323-3.066 14.564 2.22 19.85l49.314 49.315c3.088 3.089 7.185 4.687 11.318 4.687 2.941 0 5.903-.81 8.531-2.468 15.137-9.548 24.173-25.921 24.173-43.798 0-8.147-1.898-15.857-5.266-22.72l54.037 50.4-33.676 79.932h-209.999l-9.034-33.268h56.243c8.837 0 16-7.164 16-16v-140.264c0-8.836-7.163-16-16-16h-204c-8.837 0-16 7.164-16 16v140.264c0 8.836 7.163 16 16 16h42.826l-9.034 33.268h-63.11c-8.837 0-16 7.164-16 16v45.706c0 8.836 7.163 16 16 16h36.125v212.762c0 8.836 7.163 16 16 16s16-7.164 16-16v-212.762h170.238v167.752c0 8.836 7.163 16 16 16h157.512v29.01c0 8.836 7.163 16 16 16s16-7.164 16-16v-212.762h36.125c8.837 0 16-7.164 16-16v-45.706c0-8.836-7.163-16-16-16zm-132.277-100.556-25.523-25.523c2.214-.843 4.598-1.292 7.055-1.292 10.896 0 19.759 8.864 19.759 19.759 0 2.457-.449 4.841-1.291 7.056zm-302.405-72.976h172v108.264h-172zm59.985 140.264h38.614l9.034 33.268h-56.683zm165.06 262.726v-59.876h141.512v59.876zm141.512-91.876h-141.512v-59.876h141.512zm52.125-91.876h-448v-13.706h448zm-155.756 61.938c0-8.836 7.163-16 16-16h33.75c8.837 0 16 7.164 16 16s-7.163 16-16 16h-33.75c-8.837 0-16-7.163-16-16zm65.75 91.876c0 8.836-7.163 16-16 16h-33.75c-8.837 0-16-7.164-16-16s7.163-16 16-16h33.75c8.837 0 16 7.163 16 16z"/></svg>