<?xml version="1.0" standalone="no"?>
<!DOCTYPE svg PUBLIC "-//W3C//DTD SVG 20010904//EN"
 "http://www.w3.org/TR/2001/REC-SVG-20010904/DTD/svg10.dtd">
<svg version="1.0" xmlns="http://www.w3.org/2000/svg"
 width="200.000000pt" height="200.000000pt" viewBox="0 0 200.000000 200.000000"
 preserveAspectRatio="xMidYMid meet">

<g transform="translate(0.000000,200.000000) scale(0.100000,-0.100000)"
fill="#000000" stroke="none">
<path d="M111 1736 c-51 -28 -50 -13 -51 -733 0 -500 3 -679 12 -698 26 -57
-7 -55 928 -55 935 0 902 -2 928 55 9 19 12 198 12 696 0 727 1 712 -55 737
-40 18 -1741 16 -1774 -2z m1754 -736 l0 -685 -865 0 -865 0 -3 675 c-1 371 0
681 3 688 3 10 182 12 867 10 l863 -3 0 -685z"/>
<path d="M372 1563 l3 -28 188 -3 187 -2 0 30 0 30 -191 0 -190 0 3 -27z"/>
<path d="M203 1433 c-10 -4 -13 -100 -13 -433 0 -381 2 -429 16 -434 9 -3 172
-6 363 -6 257 0 350 3 359 12 17 17 17 839 0 856 -9 9 -102 12 -362 11 -193 0
-357 -3 -363 -6z m667 -433 l0 -370 -30 0 -30 0 0 156 0 156 -29 29 c-24 24
-38 29 -75 29 -51 0 -53 4 -31 65 14 40 21 199 9 229 -5 13 -23 16 -97 16 -85
0 -93 -2 -119 -27 -26 -25 -28 -32 -28 -110 0 -52 6 -97 15 -120 21 -50 20
-53 -25 -53 -52 0 -93 -21 -108 -55 -8 -16 -12 -80 -12 -170 l0 -145 -30 0
-30 0 0 370 0 370 310 0 310 0 0 -370z m-240 188 c-1 -35 -8 -81 -16 -103 -9
-22 -18 -56 -21 -75 -3 -19 -10 -41 -16 -48 -15 -20 -47 15 -47 52 -1 17 -7
42 -15 56 -14 25 -20 134 -9 164 5 12 21 16 65 16 l59 0 0 -62z m-123 -270
c21 -20 23 -30 23 -125 l0 -103 30 0 30 0 0 98 c0 95 1 99 28 125 21 20 38 27
68 27 22 0 45 -5 52 -12 8 -8 12 -57 12 -155 l0 -143 -185 0 -185 0 0 148 c0
82 3 152 7 155 3 4 27 7 52 7 32 0 51 -6 68 -22z"/>
<path d="M1032 1408 l3 -33 90 0 90 0 3 33 3 32 -96 0 -96 0 3 -32z"/>
<path d="M1030 1280 l0 -30 140 0 140 0 0 30 0 30 -140 0 -140 0 0 -30z"/>
<path d="M1370 1280 l0 -30 160 0 160 0 0 30 0 30 -160 0 -160 0 0 -30z"/>
<path d="M1030 1125 l0 -35 125 0 125 0 0 35 0 35 -125 0 -125 0 0 -35z"/>
<path d="M1030 1000 l0 -30 390 0 390 0 0 30 0 30 -390 0 -390 0 0 -30z"/>
<path d="M1527 914 c-3 -3 -1 -18 4 -32 8 -25 13 -27 53 -24 24 2 53 -1 64 -7
17 -9 23 -7 36 11 22 31 21 34 -15 47 -34 12 -132 15 -142 5z"/>
<path d="M1030 875 l0 -35 125 0 125 0 0 35 0 35 -125 0 -125 0 0 -35z"/>
<path d="M1352 766 c-77 -80 -87 -104 -83 -201 2 -47 15 -61 45 -47 22 10 24
16 19 46 -10 65 4 102 67 170 57 60 59 64 42 80 -10 9 -21 16 -24 16 -3 0 -32
-29 -66 -64z"/>
<path d="M1744 812 c-18 -15 -19 -20 -8 -47 28 -65 11 -127 -57 -200 -41 -44
-41 -46 -24 -65 19 -20 19 -20 68 27 60 58 86 112 87 175 0 45 -25 128 -39
128 -3 -1 -15 -8 -27 -18z"/>
<path d="M1555 788 c-11 -6 -37 -27 -57 -46 l-38 -36 22 -23 21 -23 43 40 c48
44 74 44 74 0 0 -15 9 -35 21 -46 17 -16 22 -16 30 -4 20 32 22 63 5 95 -27
49 -78 67 -121 43z"/>
<path d="M1030 720 l0 -30 95 0 95 0 0 30 0 30 -95 0 -95 0 0 -30z"/>
<path d="M1401 642 c-20 -38 -13 -81 18 -113 46 -46 103 -36 166 30 l29 31
-22 22 -22 22 -40 -39 c-33 -33 -44 -38 -58 -29 -9 6 -17 21 -17 33 0 11 -10
31 -22 42 l-21 21 -11 -20z"/>
<path d="M1037 624 c-4 -4 -7 -20 -7 -36 l0 -29 63 3 c62 3 62 3 62 33 0 29
-1 30 -55 33 -31 2 -59 0 -63 -4z"/>
<path d="M1536 449 c-10 -6 -41 -9 -68 -7 -45 5 -51 3 -61 -19 -15 -33 2 -43
76 -43 55 0 117 20 117 39 0 8 -33 41 -41 41 -2 0 -12 -5 -23 -11z"/>
</g>
</svg>
